<?xml version="1.0" standalone="no"?>
<!DOCTYPE svg PUBLIC "-//W3C//DTD SVG 20010904//EN"
 "http://www.w3.org/TR/2001/REC-SVG-20010904/DTD/svg10.dtd">
<svg version="1.0" xmlns="http://www.w3.org/2000/svg"
 width="512.000000pt" height="512.000000pt" viewBox="0 0 512.000000 512.000000"
 preserveAspectRatio="xMidYMid meet">

<g transform="translate(0.000000,512.000000) scale(0.100000,-0.100000)"
fill="#000000" stroke="none">
<path d="M2483 5109 c-544 -70 -864 -496 -948 -1261 -13 -125 -19 -231 -46
-843 -5 -137 -14 -295 -19 -350 -21 -228 -7 -361 49 -482 21 -44 27 -65 18
-67 -157 -45 -300 -153 -395 -299 -103 -158 -160 -348 -191 -642 -33 -308 -82
-908 -78 -957 7 -76 40 -133 97 -166 l45 -27 630 -7 c347 -5 1030 -7 1520 -5
l890 2 48 23 c84 42 104 98 131 367 44 439 24 736 -66 1000 -86 252 -254 481
-436 595 -59 37 -71 49 -67 65 22 82 25 128 14 245 -15 161 -8 221 46 440 58
236 70 324 56 426 -14 97 -24 131 -96 314 -31 80 -63 174 -71 210 -17 81 -17
218 0 430 25 308 -4 449 -129 626 -189 266 -601 416 -1002 363z m335 -84 c310
-44 547 -197 663 -427 60 -118 73 -262 48 -538 -14 -163 -7 -355 16 -430 9
-30 46 -129 80 -220 102 -264 103 -326 19 -660 -50 -199 -55 -251 -44 -525 4
-104 3 -113 -22 -161 -53 -102 -153 -173 -325 -231 -112 -38 -129 -49 -118
-84 9 -27 33 -27 125 2 154 49 244 99 316 175 l40 43 61 -39 c135 -85 268
-240 353 -410 115 -229 163 -537 141 -893 -14 -233 -38 -429 -55 -472 -29 -68
-37 -70 -356 -70 l-285 0 -3 220 c-4 234 9 466 38 709 10 82 16 155 13 162 -8
21 -44 28 -60 11 -33 -32 -73 -498 -73 -849 l0 -258 -487 0 c-269 0 -654 3
-857 7 l-368 6 6 46 c14 110 18 605 7 799 -7 112 -15 210 -17 217 -8 20 -33
26 -55 14 -20 -10 -20 -16 -12 -172 10 -202 10 -702 -1 -820 l-8 -88 -283 3
c-269 3 -285 4 -312 24 -53 39 -58 82 -39 304 72 817 80 888 120 1052 71 286
249 495 470 552 l56 15 46 -31 c25 -17 95 -50 154 -73 155 -61 208 -98 241
-170 16 -34 49 -44 69 -20 20 24 -6 89 -56 140 -47 48 -106 82 -224 125 -133
49 -200 103 -246 196 -56 115 -62 197 -39 510 8 110 19 336 25 504 21 619 48
838 140 1111 64 194 141 329 254 447 197 207 502 296 844 247z"/>
<path d="M2455 4676 c-121 -33 -185 -65 -294 -147 -187 -140 -303 -342 -341
-589 -6 -41 -18 -214 -25 -385 -8 -170 -19 -359 -26 -420 -14 -139 -7 -370 15
-450 44 -162 138 -296 286 -405 78 -58 464 -311 512 -336 58 -30 114 -16 220
56 214 145 368 282 445 395 130 192 180 370 190 672 13 405 -46 809 -156 1062
-108 249 -311 454 -526 533 -75 27 -226 34 -300 14z m268 -91 c97 -34 168 -79
259 -164 121 -114 202 -246 269 -439 32 -96 31 -97 -56 -96 -36 0 -67 9 -110
32 -89 47 -134 41 -154 -21 -9 -25 -8 -53 4 -118 8 -46 15 -87 15 -91 0 -13
-93 4 -160 29 -86 32 -146 72 -213 141 -63 67 -112 141 -152 229 -29 65 -45
79 -74 63 -43 -22 -86 -187 -74 -279 l6 -44 -38 6 c-115 19 -241 123 -289 239
-16 36 -15 38 29 126 30 59 67 113 110 160 197 213 430 297 628 227z m-315
-638 c87 -153 234 -272 399 -322 75 -23 204 -30 227 -12 19 14 19 16 -3 113
-31 138 -33 146 -24 142 130 -65 183 -77 248 -59 21 6 40 9 41 8 16 -16 64
-459 64 -595 0 -56 -5 -71 -37 -125 -84 -138 -270 -291 -436 -359 -196 -80
-401 -83 -596 -8 -151 58 -304 182 -396 320 l-47 70 11 123 c6 67 13 208 16
312 6 181 21 391 31 406 2 4 37 -26 76 -65 78 -78 143 -115 243 -141 124 -32
173 -16 153 49 -21 65 -27 113 -21 158 3 26 9 45 13 43 5 -3 21 -29 38 -58z
m946 -999 c-17 -169 -71 -343 -140 -454 -61 -99 -65 -102 -107 -64 -52 45 -71
112 -64 214 6 69 10 83 29 96 76 51 143 109 209 179 41 43 75 80 76 80 1 1 0
-23 -3 -51z m-1363 -129 c30 -25 75 -60 101 -77 41 -28 48 -38 54 -77 3 -25 3
-65 0 -89 -8 -54 -62 -165 -84 -174 -24 -9 -107 90 -153 183 -45 92 -69 200
-69 316 l0 80 48 -58 c27 -32 73 -79 103 -104z m998 -361 c21 -45 58 -89 88
-107 16 -10 11 -18 -43 -69 -68 -65 -294 -233 -349 -259 -28 -13 -42 -15 -63
-7 -15 6 -134 81 -265 167 l-238 157 24 32 c54 72 87 170 87 257 l0 37 83 -27
c185 -62 368 -61 552 5 l90 32 6 -88 c5 -57 14 -102 28 -130z"/>
<path d="M2961 1941 c-32 -21 -90 -393 -97 -626 -6 -220 -9 -242 -33 -250 -25
-8 -34 -32 -21 -56 8 -14 22 -19 56 -19 25 0 65 -5 90 -11 53 -14 77 0 72 40
-2 20 -11 28 -43 37 l-40 11 1 189 c1 202 9 287 51 512 20 105 24 148 16 160
-12 20 -33 25 -52 13z"/>
<path d="M2213 1923 c-4 -9 3 -71 15 -137 43 -239 61 -492 47 -669 -5 -79 -10
-99 -23 -103 -50 -15 -67 -49 -37 -74 14 -11 29 -10 93 5 42 9 85 22 95 27 34
17 14 68 -27 68 -21 0 -21 5 -22 223 0 122 -5 265 -12 317 -18 141 -54 333
-65 348 -14 18 -57 15 -64 -5z"/>
</g>
</svg>
