<?xml version="1.0" standalone="no"?>
<!DOCTYPE svg PUBLIC "-//W3C//DTD SVG 20010904//EN"
 "http://www.w3.org/TR/2001/REC-SVG-20010904/DTD/svg10.dtd">
<svg version="1.0" xmlns="http://www.w3.org/2000/svg"
 width="512.000000pt" height="512.000000pt" viewBox="0 0 512.000000 512.000000"
 preserveAspectRatio="xMidYMid meet">

<g transform="translate(0.000000,512.000000) scale(0.100000,-0.100000)"
fill="#000000" stroke="none">
<path d="M2443 4945 c-101 -22 -189 -71 -271 -151 l-72 -71 -475 -957 c-262
-528 -482 -982 -490 -1013 -18 -68 -19 -105 -4 -175 36 -170 164 -295 335
-328 42 -8 365 -10 1129 -8 l1070 3 58 22 c196 74 313 287 264 480 -10 38
-196 423 -491 1018 l-475 957 -73 72 c-138 137 -319 191 -505 151z m198 -728
c18 -12 44 -38 56 -56 l23 -34 0 -447 0 -447 -23 -34 c-71 -106 -203 -106
-274 0 l-23 34 0 447 0 447 23 34 c35 52 82 79 137 79 32 0 58 -7 81 -23z m0
-1210 c62 -41 79 -79 79 -172 0 -69 -4 -87 -23 -116 -71 -106 -203 -106 -274
0 -19 29 -23 47 -23 116 0 69 4 87 23 116 35 52 82 79 137 79 32 0 58 -7 81
-23z"/>
<path d="M466 4149 c-62 -15 -153 -68 -197 -116 -22 -24 -55 -74 -72 -111
l-32 -67 0 -1296 0 -1295 38 -76 c44 -91 102 -146 197 -192 l65 -31 728 -3
727 -3 0 -239 0 -239 -509 -3 c-497 -3 -510 -4 -537 -24 -52 -39 -69 -71 -69
-133 0 -47 5 -64 27 -93 56 -74 -89 -68 1728 -68 1817 0 1672 -6 1728 68 39
51 39 133 0 184 -53 70 -40 68 -592 68 l-496 0 0 240 0 239 728 3 728 3 76 37
c91 45 147 103 191 196 l32 67 0 1295 0 1295 -32 67 c-44 93 -100 151 -191
196 l-76 37 -437 0 c-426 0 -438 -1 -465 -21 -52 -39 -69 -71 -69 -133 0 -47
5 -64 27 -93 52 -68 51 -68 487 -68 l392 0 24 -25 25 -24 0 -936 0 -935 -2080
0 -2080 0 0 935 0 936 25 24 24 25 392 0 c436 0 435 0 487 68 39 51 39 133 0
184 -52 68 -50 68 -500 67 -221 -1 -420 -5 -442 -10z m4174 -2684 c0 -131 -1
-137 -25 -160 l-24 -25 -2031 0 -2031 0 -24 25 c-24 23 -25 29 -25 160 l0 135
2080 0 2080 0 0 -135z m-1760 -745 l0 -240 -320 0 -320 0 0 240 0 240 320 0
320 0 0 -240z"/>
</g>
</svg>
